#Comment line ignore any data following # character 
#Hierarchical Translation and Rotation (.htr) file 
[Header]	
#Header keywords are followed by a single value 
FileType HTR		#Single word string
DataType HTRS		#Translation followed by rotation and scale data
FileVersion 1		#integer
NumSegments 64		#integer
NumFrames 3		#integer
DataFrameRate 30		#integer, data frame rate in this file
EulerRotationOrder ZYX
CalibrationUnits mm
RotationUnits Degrees
GlobalAxisofGravity Y
BoneLengthAxis Y
ScaleFactor 1.00
[SegmentNames&Hierarchy]
#CHILD	PARENT
Pinger_Root GLOBAL
Pelvis Pinger_Root
L_Hip Pelvis
R_Hip Pelvis
Rear_Leg01 Pelvis
Spine1 Pelvis
L_Leg01 L_Hip
L_Leg02 L_Leg01
L_Leg03 L_Leg02
L_Foot L_Leg03
L_Toe1_01 L_Foot
L_Toe2_01 L_Foot
L_Toe3_01 L_Foot
planeAlignerLeft L_Foot
L_Toe1_02 L_Toe1_01
L_Toe1_03 L_Toe1_02
L_Toe2_02 L_Toe2_01
L_Toe2_03 L_Toe2_02
L_Toe3_02 L_Toe3_01
L_Toe3_03 L_Toe3_02
planeLockWeightLeft planeAlignerLeft
R_Leg01 R_Hip
R_Leg02 R_Leg01
R_Leg03 R_Leg02
R_Foot R_Leg03
planeAlignerRight R_Foot
R_Toe1_01 R_Foot
R_Toe2_01 R_Foot
R_Toe3_01 R_Foot
planeLockWeightRight planeAlignerRight
R_Toe1_02 R_Toe1_01
R_Toe1_03 R_Toe1_02
R_Toe2_02 R_Toe2_01
R_Toe2_03 R_Toe2_02
R_Toe3_02 R_Toe3_01
R_Toe3_03 R_Toe3_02
Rear_Leg02 Rear_Leg01
Rear_Leg03 Rear_Leg02
Rear_Leg04 Rear_Leg03
Rear_Foot Rear_Leg04
planeAlignerCenter Rear_Foot
Rear_Toe1_01 Rear_Foot
Rear_Toe2_01 Rear_Foot
Rear_Toe3_01 Rear_Foot
planeLockWeightCenter planeAlignerCenter
Rear_Toe1_02 Rear_Toe1_01
Rear_Toe1_03 Rear_Toe1_02
Rear_Toe2_02 Rear_Toe2_01
Rear_Toe2_03 Rear_Toe2_02
Rear_Toe3_02 Rear_Toe3_01
Rear_Toe3_03 Rear_Toe3_02
Back_Bone Spine1
Head Spine1
Motor_Bone Back_Bone
Ping_Mechanism Back_Bone
BN_LookIK Head
bottomMouth Head
L_Mouth01 Head
L_mouthFront Head
mouthGun Head
R_Mouth01 Head
R_mouthFront Head
TopMouth Head
weapon_bone Head
[BasePosition]
#SegmentName Tx, Ty, Tz, Rx, Ry, Rz, BoneLength
Pinger_Root 0.000000 0.000000 0.000000 -90.000000 0.000000 0.000000 10.000000 
Pelvis 0.000000 0.000000 0.000000 0.000000 0.000000 0.000000 10.000000 
L_Hip 0.000000 0.000000 0.000000 0.000000 0.000000 0.000000 10.000000 
R_Hip 0.000000 0.000000 0.000000 0.000000 0.000000 0.000000 10.000000 
Rear_Leg01 0.000000 0.000000 0.000000 0.000000 0.000000 0.000000 10.000000 
Spine1 0.000000 0.000000 0.000000 0.000000 0.000000 0.000000 10.000000 
L_Leg01 0.000000 0.000000 0.000000 0.000000 0.000000 0.000000 10.000000 
L_Leg02 0.000000 0.000000 0.000000 0.000000 0.000000 0.000000 10.000000 
L_Leg03 0.000000 0.000000 0.000000 0.000000 0.000000 0.000000 10.000000 
L_Foot 0.000000 0.000000 0.000000 0.000000 0.000000 0.000000 10.000000 
L_Toe1_01 0.000000 0.000000 0.000000 0.000000 0.000000 0.000000 10.000000 
L_Toe2_01 0.000000 0.000000 0.000000 0.000000 0.000000 0.000000 10.000000 
L_Toe3_01 0.000000 0.000000 0.000000 0.000000 0.000000 0.000000 10.000000 
planeAlignerLeft 0.000000 0.000000 0.000000 0.000000 0.000000 0.000000 10.000000 
L_Toe1_02 0.000000 0.000000 0.000000 0.000000 0.000000 0.000000 10.000000 
L_Toe1_03 0.000000 0.000000 0.000000 0.000000 0.000000 0.000000 10.000000 
L_Toe2_02 0.000000 0.000000 0.000000 0.000000 0.000000 0.000000 10.000000 
L_Toe2_03 0.000000 0.000000 0.000000 0.000000 0.000000 0.000000 10.000000 
L_Toe3_02 0.000000 0.000000 0.000000 0.000000 0.000000 0.000000 10.000000 
L_Toe3_03 0.000000 0.000000 0.000000 0.000000 0.000000 0.000000 10.000000 
planeLockWeightLeft 0.000000 0.000000 0.000000 0.000000 0.000000 0.000000 10.000000 
R_Leg01 0.000000 0.000000 0.000000 0.000000 0.000000 0.000000 10.000000 
R_Leg02 0.000000 0.000000 0.000000 0.000000 0.000000 0.000000 10.000000 
R_Leg03 0.000000 0.000000 0.000000 0.000000 0.000000 0.000000 10.000000 
R_Foot 0.000000 0.000000 0.000000 0.000000 0.000000 0.000000 10.000000 
planeAlignerRight 0.000000 0.000000 0.000000 0.000000 0.000000 0.000000 10.000000 
R_Toe1_01 0.000000 0.000000 0.000000 0.000000 0.000000 0.000000 10.000000 
R_Toe2_01 0.000000 0.000000 0.000000 0.000000 0.000000 0.000000 10.000000 
R_Toe3_01 0.000000 0.000000 0.000000 0.000000 0.000000 0.000000 10.000000 
planeLockWeightRight 0.000000 0.000000 0.000000 0.000000 0.000000 0.000000 10.000000 
R_Toe1_02 0.000000 0.000000 0.000000 0.000000 0.000000 0.000000 10.000000 
R_Toe1_03 0.000000 0.000000 0.000000 0.000000 0.000000 0.000000 10.000000 
R_Toe2_02 0.000000 0.000000 0.000000 0.000000 0.000000 0.000000 10.000000 
R_Toe2_03 0.000000 0.000000 0.000000 0.000000 0.000000 0.000000 10.000000 
R_Toe3_02 0.000000 0.000000 0.000000 0.000000 0.000000 0.000000 10.000000 
R_Toe3_03 0.000000 0.000000 0.000000 0.000000 0.000000 0.000000 10.000000 
Rear_Leg02 0.000000 0.000000 0.000000 0.000000 0.000000 0.000000 10.000000 
Rear_Leg03 0.000000 0.000000 0.000000 0.000000 0.000000 0.000000 10.000000 
Rear_Leg04 0.000000 0.000000 0.000000 0.000000 0.000000 0.000000 10.000000 
Rear_Foot 0.000000 0.000000 0.000000 0.000000 0.000000 0.000000 10.000000 
planeAlignerCenter 0.000000 0.000000 0.000000 0.000000 0.000000 0.000000 10.000000 
Rear_Toe1_01 0.000000 0.000000 0.000000 0.000000 0.000000 0.000000 10.000000 
Rear_Toe2_01 0.000000 0.000000 0.000000 0.000000 0.000000 0.000000 10.000000 
Rear_Toe3_01 0.000000 0.000000 0.000000 0.000000 0.000000 0.000000 10.000000 
planeLockWeightCenter 0.000000 0.000000 0.000000 0.000000 0.000000 0.000000 10.000000 
Rear_Toe1_02 0.000000 0.000000 0.000000 0.000000 0.000000 0.000000 10.000000 
Rear_Toe1_03 0.000000 0.000000 0.000000 0.000000 0.000000 0.000000 10.000000 
Rear_Toe2_02 0.000000 0.000000 0.000000 0.000000 0.000000 0.000000 10.000000 
Rear_Toe2_03 0.000000 0.000000 0.000000 0.000000 0.000000 0.000000 10.000000 
Rear_Toe3_02 0.000000 0.000000 0.000000 0.000000 0.000000 0.000000 10.000000 
Rear_Toe3_03 0.000000 0.000000 0.000000 0.000000 0.000000 0.000000 10.000000 
Back_Bone 0.000000 0.000000 0.000000 0.000000 0.000000 0.000000 10.000000 
Head 0.000000 0.000000 0.000000 0.000000 0.000000 0.000000 10.000000 
Motor_Bone 0.000000 0.000000 0.000000 0.000000 0.000000 0.000000 10.000000 
Ping_Mechanism 0.000000 0.000000 0.000000 0.000000 0.000000 0.000000 10.000000 
BN_LookIK 0.000000 0.000000 0.000000 0.000000 0.000000 0.000000 10.000000 
bottomMouth 0.000000 0.000000 0.000000 0.000000 0.000000 0.000000 10.000000 
L_Mouth01 0.000000 0.000000 0.000000 0.000000 0.000000 0.000000 10.000000 
L_mouthFront 0.000000 0.000000 0.000000 0.000000 0.000000 0.000000 10.000000 
mouthGun 0.000000 0.000000 0.000000 0.000000 0.000000 0.000000 10.000000 
R_Mouth01 0.000000 0.000000 0.000000 0.000000 0.000000 0.000000 10.000000 
R_mouthFront 0.000000 0.000000 0.000000 0.000000 0.000000 0.000000 10.000000 
TopMouth 0.000000 0.000000 0.000000 0.000000 0.000000 0.000000 10.000000 
weapon_bone 0.000000 0.000000 0.000000 0.000000 0.000000 0.000000 10.000000 
#Beginning of Data. Separated by tabs
#Fr	Tx	Ty	Tz	Rx	Ry	Rz	SF
[Pinger_Root]
21 -0.000014 -1778.425781 0.000000 -0.000075 -0.000000 -0.000020 1778.425903
22 -0.000015 -1860.000244 0.000000 -0.000075 -0.000000 -0.000020 1860.000244
23 -0.000016 -1938.309204 0.000000 -0.000075 -0.000000 -0.000020 1938.309204
[Pelvis]
21 -221.493744 730.349243 4722.350586 33.990551 -71.334465 -23.411850 4783.624512
22 -202.284210 766.230042 4747.389648 34.490021 -71.070999 -22.177559 4813.080078
23 -171.042648 804.573059 4757.099121 34.999973 -70.811096 -20.952820 4827.689453
[L_Hip]
21 5.766392 125.831482 872.656799 -178.253311 -81.787758 87.381340 881.701050
22 5.766392 125.831482 872.656799 -178.253311 -81.787758 87.381340 881.701050
23 5.766392 125.831482 872.656799 -178.253311 -81.787758 87.381340 881.701050
[R_Hip]
21 5.765438 125.836372 -872.654907 -1.746690 81.787712 87.381248 881.699829
22 5.765438 125.836372 -872.654907 -1.746690 81.787712 87.381248 881.699829
23 5.765438 125.836372 -872.654907 -1.746690 81.787712 87.381248 881.699829
[Rear_Leg01]
21 -192.298416 -925.602966 -0.001907 146.601593 3.823077 -129.142181 945.367432
22 -192.298416 -925.602966 -0.001907 149.229996 1.370219 -126.467278 945.367432
23 -192.298416 -925.602966 -0.001907 151.125458 -2.298961 -125.569695 945.367432
[Spine1]
21 290.604584 5.007505 0.000477 -16.472124 -8.207293 38.138126 290.647736
22 290.604584 5.007505 0.000477 -18.426937 -7.468404 38.262260 290.647736
23 290.604584 5.007505 0.000477 -20.376339 -6.726001 38.360710 290.647736
[L_Leg01]
21 761.932007 -0.002384 -0.069261 74.318291 -27.351999 -91.608658 761.932068
22 761.932007 -0.002384 -0.069261 75.018311 -27.932316 -92.506516 761.932068
23 761.932007 -0.002384 -0.069261 76.111137 -28.581108 -93.077873 761.932068
[L_Leg02]
21 1441.140503 -0.000954 -0.000715 -1.428055 0.659656 -99.661194 1441.140503
22 1441.140503 -0.000954 -0.000715 -1.419453 0.681025 -97.639519 1441.140503
23 1441.140503 -0.000954 -0.000715 -1.414362 0.687308 -96.275139 1441.140503
[L_Leg03]
21 1686.963989 -0.000715 -0.000954 0.056657 -0.012877 94.799026 1686.963989
22 1686.963989 -0.000715 -0.000954 0.061473 -0.012264 93.298508 1686.963989
23 1686.963989 -0.000715 -0.000954 0.064999 -0.015315 92.335693 1686.963989
[L_Foot]
21 3041.570068 -30.715107 11.297464 -7.637517 8.811109 55.018742 3041.746094
22 3041.570068 -30.715107 11.297464 -7.214006 7.817577 53.883240 3041.746094
23 3041.570068 -30.715107 11.297464 -7.224951 7.206913 52.716312 3041.746094
[L_Toe1_01]
21 -188.216690 -224.732346 -21.137953 89.161499 -1.767253 -157.546097 293.899567
22 -188.216690 -224.732346 -21.137953 89.146629 -1.759694 -157.058365 293.899567
23 -188.216690 -224.732346 -21.137953 89.131813 -1.752012 -156.570633 293.899567
[L_Toe2_01]
21 200.746536 -219.926590 148.838394 -76.744308 -13.025071 -48.767776 332.896027
22 200.746536 -219.926590 148.838394 -76.647545 -12.936764 -49.219307 332.896027
23 200.746536 -219.926590 148.838394 -76.551567 -12.847721 -49.670536 332.896027
[L_Toe3_01]
21 188.832520 -219.859131 -191.078659 -107.246429 16.150887 -50.735577 347.140900
22 188.832520 -219.859131 -191.078659 -107.365746 16.036402 -51.186874 347.140900
23 188.832520 -219.859131 -191.078659 -107.484062 15.921021 -51.637669 347.140900
[planeAlignerLeft]
21 -74.270325 -671.889404 0.066681 0.000000 -89.951546 -90.054779 675.981873
22 -75.614319 -677.279907 0.065613 0.000000 -89.937447 -90.057434 681.487732
23 -76.958305 -682.670349 0.064545 0.000000 -89.944046 -90.060097 686.994446
[L_Toe1_02]
21 413.761139 0.000477 0.000000 0.001391 -25.100338 0.001391 413.761139
22 413.761139 0.000477 0.000000 0.001390 -25.191549 0.001390 413.761139
23 413.761139 0.000477 0.000000 0.001389 -25.282763 0.001389 413.761139
[L_Toe1_03]
21 464.317322 0.000358 -0.000089 0.005526 65.454033 0.005526 464.317322
22 464.317322 0.000358 -0.000089 0.005341 64.598946 0.005341 464.317322
23 464.317322 0.000358 -0.000089 0.005169 63.744217 0.005169 464.317322
[L_Toe2_02]
21 342.235809 -0.000477 0.000238 0.001180 -78.415833 0.001180 342.235809
22 342.235809 -0.000477 0.000238 0.001180 -78.381950 0.001180 342.235809
23 342.235809 -0.000477 0.000238 0.001180 -78.348038 0.001180 342.235809
[L_Toe2_03]
21 420.210846 -0.000715 0.000000 -179.997772 73.499321 -179.994232 420.210846
22 420.210846 -0.000715 0.000000 -179.997696 73.748001 -179.994171 420.210846
23 420.210846 -0.000715 0.000000 -179.997574 74.227074 -179.994049 420.210846
[L_Toe3_02]
21 329.270111 0.000954 0.000000 0.001177 -81.873917 0.001177 329.270111
22 329.270111 0.000954 0.000000 0.001177 -81.813744 0.001177 329.270111
23 329.270111 0.000954 0.000000 0.001177 -81.753662 0.001177 329.270111
[L_Toe3_03]
21 439.137451 -0.001907 0.000954 -179.998108 71.935661 -179.994568 439.137451
22 439.137451 -0.001907 0.000954 -179.998062 72.155045 -179.994522 439.137451
23 439.137451 -0.001907 0.000954 -179.997971 72.604324 -179.994431 439.137451
[planeLockWeightLeft]
21 1000.000488 -0.000305 -0.000228 -0.011826 -0.004376 0.005620 1000.000488
22 1000.000488 -0.000305 -0.000227 -0.011826 -0.004376 0.005620 1000.000488
23 1000.000488 -0.000305 -0.000225 -0.011826 -0.004376 0.005620 1000.000488
[R_Leg01]
21 761.455627 -0.001907 -0.000358 80.687592 0.510691 46.442299 761.455688
22 761.455627 -0.001907 -0.000358 80.274597 9.688595 44.591946 761.455688
23 761.455627 -0.001907 -0.000358 81.824516 15.485573 43.689419 761.455688
[R_Leg02]
21 1441.140625 0.000000 -0.000238 -1.466452 -1.295606 -133.069702 1441.140625
22 1441.140625 0.000000 -0.000238 -1.487647 -1.256357 -124.109238 1441.140625
23 1441.140625 0.000000 -0.000238 -1.497751 -1.303401 -122.782745 1441.140625
[R_Leg03]
21 1686.963989 0.000954 0.001431 0.164165 -0.117626 155.286285 1686.963989
22 1686.963989 0.000954 0.001431 0.164326 -0.117401 155.129303 1686.963989
23 1686.963989 0.000954 0.001431 0.168605 -0.117140 155.675980 1686.963989
[R_Foot]
21 3041.560059 -30.531288 -11.204481 39.431286 -34.972084 22.817289 3041.734131
22 3041.560059 -30.531288 -11.204481 41.623970 -35.205494 20.799944 3041.734131
23 3041.560059 -30.531288 -11.204481 41.185749 -35.244171 25.785320 3041.734131
[planeAlignerRight]
21 -267.037354 -775.815430 37.263775 0.000000 -89.934387 -90.043106 821.332520
22 -270.534973 -781.164246 27.139030 0.000000 -89.925987 -90.044998 827.129517
23 -269.791870 -786.711365 15.153961 0.000000 -89.931473 -90.046921 831.824585
[R_Toe1_01]
21 -188.383347 -224.864899 21.052242 91.312119 1.143460 -144.979767 294.101532
22 -188.383347 -224.864899 21.052242 91.244370 1.370354 -145.346939 294.101532
23 -188.383347 -224.864899 21.052242 91.208603 1.582240 -145.219742 294.101532
[R_Toe2_01]
21 200.637817 -220.002121 -148.787384 -107.366570 6.812359 -80.870209 332.857574
22 200.637817 -220.002121 -148.787384 -107.426315 7.723336 -80.299393 332.857574
23 200.637817 -220.002121 -148.787384 -107.477028 8.634851 -79.728233 332.857574
[R_Toe3_01]
21 188.606735 -220.092957 191.126343 -67.209351 -12.486650 -82.142532 347.192566
22 188.606735 -220.092957 191.126343 -67.324448 -12.074402 -81.317741 347.192566
23 188.606735 -220.092957 191.126343 -67.433273 -11.660605 -80.495079 347.192566
[planeLockWeightRight]
21 0.000198 0.000000 0.000000 -0.011823 -0.004379 -0.000027 0.000198
22 104.000565 0.000000 -0.000000 -0.011823 -0.004379 -0.000027 104.000565
23 351.999481 0.000000 -0.000076 -0.011823 -0.004379 -0.000027 351.999481
[R_Toe1_02]
21 413.762085 0.000477 -0.000119 0.001416 -21.998083 0.001416 413.762085
22 413.762085 0.000477 -0.000119 0.001409 -22.854832 0.001409 413.762085
23 413.762085 0.000477 -0.000119 0.001402 -23.711622 0.001402 413.762085
[R_Toe1_03]
21 464.317810 0.000000 0.001088 -0.011064 82.923492 -0.007561 464.317810
22 464.317810 0.000000 0.001088 0.013328 79.896332 0.013328 464.317810
23 464.317810 0.000000 0.001088 0.009463 75.752007 0.009463 464.317810
[R_Toe2_02]
21 342.234741 -0.000954 0.000238 -0.002331 -80.731133 -0.002331 342.234741
22 342.234741 -0.000954 0.000238 -0.002331 -80.712402 -0.002331 342.234741
23 342.234741 -0.000954 0.000238 -0.002331 -80.693649 -0.002331 342.234741
[R_Toe2_03]
21 420.210846 0.000715 -0.000268 -179.996384 52.177666 179.999924 420.210846
22 420.210846 0.000715 -0.000268 -179.996353 53.164196 179.999985 420.210846
23 420.210846 0.000715 -0.000268 -179.996292 54.150780 -179.999969 420.210846
[R_Toe3_02]
21 329.270355 -0.000477 -0.000954 0.001175 -84.386017 0.001175 329.270355
22 329.270355 -0.000477 -0.000954 0.001175 -84.359306 0.001175 329.270355
23 329.270355 -0.000477 -0.000954 0.001175 -84.332474 0.001175 329.270355
[R_Toe3_03]
21 439.137939 0.000238 0.001431 -179.996307 53.281635 -179.988937 439.137939
22 439.137939 0.000238 0.001431 -179.996216 53.716312 -179.988861 439.137939
23 439.137939 0.000238 0.001431 -179.996124 54.150997 -179.988785 439.137939
[Rear_Leg02]
21 1162.777710 -0.029802 0.005960 -45.386425 55.077877 -140.723557 1162.777710
22 1162.777710 -0.029802 0.005960 -41.884350 57.520931 -133.374786 1162.777710
23 1162.777710 -0.029802 0.005960 -38.903610 59.426090 -129.296997 1162.777710
[Rear_Leg03]
21 607.192505 -0.013351 -0.073195 0.010151 -0.005754 75.445816 607.192505
22 607.192505 -0.013351 -0.073195 0.010145 -0.005766 75.577225 607.192505
23 607.192505 -0.013351 -0.073195 0.010138 -0.005777 75.708649 607.192505
[Rear_Leg04]
21 995.874512 -0.020504 -0.011921 -0.045935 -0.016073 84.845451 995.874573
22 995.874512 -0.020504 -0.011921 -0.045968 -0.015979 85.079933 995.874573
23 995.874512 -0.020504 -0.011921 -0.044246 -0.017401 85.727692 995.874573
[Rear_Foot]
21 3096.176270 -0.067472 -0.041425 80.055183 28.231161 -98.513107 3096.176270
22 3096.176270 -0.067472 -0.041425 81.241440 26.433428 -99.921478 3096.176270
23 3096.176270 -0.067472 -0.041425 81.991501 25.311672 -101.000221 3096.176270
[planeAlignerCenter]
21 21.865383 -84.111649 -760.938293 0.001964 -0.001286 156.418488 765.885071
22 20.108713 -53.922897 -785.860718 0.001956 -0.001298 157.125381 787.965210
23 17.446442 -23.297501 -807.339905 0.001948 -0.001310 157.832245 807.864380
[Rear_Toe1_01]
21 0.653352 83.966492 -371.173737 -2.320369 21.893105 61.223125 380.553192
22 0.653352 83.966492 -371.173737 -1.911498 24.209114 62.772724 380.553192
23 0.653352 83.966492 -371.173737 -1.471181 26.429211 64.622543 380.553192
[Rear_Toe2_01]
21 178.200760 -294.826019 -362.060547 -3.157295 45.854862 -102.355675 499.765686
22 178.200760 -294.826019 -362.060547 -3.603342 48.145824 -102.231476 499.765686
23 178.200760 -294.826019 -362.060547 -4.104438 50.258457 -101.892685 499.765686
[Rear_Toe3_01]
21 -153.359680 -308.780914 -362.060852 -2.602379 48.852005 -139.280914 499.952881
22 -153.359680 -308.780914 -362.060852 -3.643427 50.449238 -140.171295 499.952881
23 -153.359680 -308.780914 -362.060852 -4.761343 52.035301 -141.140045 499.952881
[planeLockWeightCenter]
21 1000.000244 0.000381 -0.000060 -0.011814 -0.004373 -0.000015 1000.000244
22 1000.000244 0.000387 -0.000061 -0.011814 -0.004373 -0.000015 1000.000244
23 1000.000244 0.000393 -0.000062 -0.011814 -0.004373 -0.000015 1000.000244
[Rear_Toe1_02]
21 379.707825 0.194073 0.000477 -0.004643 -32.552807 -0.004643 379.707855
22 379.707825 0.194073 0.000477 -0.003638 -33.029400 -0.003638 379.707855
23 379.707825 0.194073 0.000477 -0.002637 -33.505966 -0.002637 379.707855
[Rear_Toe1_03]
21 500.129700 0.165701 0.000119 -179.945465 88.751961 -179.948959 500.129761
22 500.129700 0.165701 0.000119 0.008460 85.468704 0.006708 500.129761
23 500.129700 0.165701 0.000119 0.013062 79.690056 0.013062 500.129761
[Rear_Toe2_02]
21 340.494507 0.000238 -0.000954 0.001215 -60.273457 0.001215 340.494507
22 340.494507 0.000238 -0.000954 0.001207 -63.158829 0.001207 340.494507
23 340.494507 0.000238 -0.000954 0.001200 -66.019501 0.001200 340.494507
[Rear_Toe2_03]
21 433.103577 0.000000 0.000238 0.004042 56.239189 0.004042 433.103546
22 433.103577 0.000000 0.000238 0.004581 60.272911 0.004581 433.103546
23 433.103577 0.000000 0.000238 0.005286 64.311623 0.005286 433.103546
[Rear_Toe3_02]
21 340.494141 -0.000358 -0.000477 0.001189 -71.418320 0.001189 340.494171
22 340.494141 -0.000358 -0.000477 0.001188 -72.247772 0.001188 340.494171
23 340.494141 -0.000358 -0.000477 0.001187 -73.077316 0.001187 340.494171
[Rear_Toe3_03]
21 433.103577 0.001431 -0.000238 0.007674 72.406242 0.007674 433.103546
22 433.103577 0.001431 -0.000238 0.008131 73.402214 0.008131 433.103546
23 433.103577 0.001431 -0.000238 0.008907 74.854149 0.008907 433.103546
[Back_Bone]
21 1312.175781 -701.934692 0.000954 2.387304 -3.615084 -85.725754 1488.125488
22 1312.175781 -701.934692 0.000954 2.323561 -3.578868 -84.821304 1488.125488
23 1312.175781 -701.934692 0.000954 2.260401 -3.541653 -83.916924 1488.125488
[Head]
21 1406.159424 809.709290 0.001431 -0.664465 -1.945569 4.822339 1622.625488
22 1406.159424 809.709290 0.001431 -0.228392 -2.041528 4.573710 1622.625488
23 1406.159424 809.709290 0.001431 0.208144 -2.135598 4.324328 1622.625488
[Motor_Bone]
21 1158.364380 -417.834747 0.000477 -3.495537 0.584004 -105.401466 1231.419434
22 1158.364380 -417.834747 0.000477 0.251859 -0.541810 -106.527908 1231.419434
23 1158.364380 -417.834747 0.000477 2.270587 -1.149517 -107.133400 1231.419434
[Ping_Mechanism]
21 1195.336670 -397.881104 82.853912 0.000103 -0.000053 82.120995 1262.538696
22 1197.665771 -397.772949 85.238243 0.000103 -0.000053 82.120995 1264.868530
23 1199.994995 -397.664795 87.622559 0.000103 -0.000053 82.120995 1267.202881
[BN_LookIK]
21 193.241119 1380.371704 -0.002861 0.000000 89.965736 -31.038179 1393.832153
22 193.241119 1380.371704 -0.002861 0.000000 89.965736 -31.038179 1393.832153
23 193.241119 1380.371704 -0.002861 0.000000 89.965736 -31.038179 1393.832153
[bottomMouth]
21 -435.092926 615.759399 -0.000954 -0.000022 0.000016 73.527184 753.966492
22 -435.092926 615.759399 -0.000954 -0.000022 0.000016 73.527184 753.966492
23 -435.092926 615.759399 -0.000954 -0.000022 0.000016 73.527184 753.966492
[L_Mouth01]
21 554.440979 7.658243 838.222046 150.204178 23.759130 109.605339 1005.027161
22 554.440979 7.658243 838.222046 150.204178 23.759130 109.605339 1005.027161
23 554.440979 7.658243 838.222046 150.204178 23.759130 109.605339 1005.027161
[L_mouthFront]
21 551.629089 934.514771 339.150421 0.000081 2.804060 79.119301 1136.941284
22 551.629089 934.514771 339.150421 0.000081 2.804060 79.119301 1136.941284
23 551.629089 934.514771 339.150421 0.000081 2.804060 79.119301 1136.941284
[mouthGun]
21 55.332661 1627.420898 0.000000 0.000023 0.000009 -11.038128 1628.361328
22 55.332661 1627.420898 0.000000 0.000023 0.000009 -11.038128 1628.361328
23 55.332661 1627.420898 0.000000 0.000023 0.000009 -11.038128 1628.361328
[R_Mouth01]
21 554.442383 7.659197 -838.223938 29.795891 -23.759109 109.605331 1005.029541
22 554.442383 7.659197 -838.223938 29.795891 -23.759109 109.605331 1005.029541
23 554.442383 7.659197 -838.223938 29.795891 -23.759109 109.605331 1005.029541
[R_mouthFront]
21 551.629089 934.514282 -339.151367 0.000029 -2.803930 79.119133 1136.941162
22 551.629089 934.514282 -339.151367 0.000029 -2.803930 79.119133 1136.941162
23 551.629089 934.514282 -339.151367 0.000029 -2.803930 79.119133 1136.941162
[TopMouth]
21 461.269867 -56.106091 -0.008583 -0.000059 -0.000268 92.025169 464.669525
22 461.269867 -56.106091 -0.008583 -0.000059 -0.000268 92.025169 464.669525
23 461.269867 -56.106091 -0.008583 -0.000059 -0.000268 92.025169 464.669525
[weapon_bone]
21 -987.239868 1448.372803 0.001431 0.000000 89.965736 -31.038221 1752.833740
22 -987.239868 1448.372803 0.001431 0.000000 89.965736 -31.038221 1752.833740
23 -987.239868 1448.372803 0.001431 0.000000 89.965736 -31.038221 1752.833740
